<?xml version="1.0" encoding="UTF-8" standalone="no"?>
<svg
  width="32"
  height="32"
  version="1.1"
  viewBox="0 0 32 32"
  id="svg24"
  sodipodi:docname="favicon.svg"
  inkscape:version="1.1.2 (1:1.1+202202050950+0a00cf5339)"
  xmlns:inkscape="http://www.inkscape.org/namespaces/inkscape"
  xmlns:sodipodi="http://sodipodi.sourceforge.net/DTD/sodipodi-0.dtd"
  xmlns="http://www.w3.org/2000/svg"
  xmlns:svg="http://www.w3.org/2000/svg">
 <defs
   id="defs28" />
 <sodipodi:namedview
   id="namedview26"
   pagecolor="#ffffff"
   bordercolor="#666666"
   borderopacity="1.0"
   inkscape:pageshadow="2"
   inkscape:pageopacity="0.0"
   inkscape:pagecheckerboard="0"
   showgrid="false"
   inkscape:zoom="8.4431489"
   inkscape:cx="14.153487"
   inkscape:cy="24.813017"
   inkscape:window-width="1872"
   inkscape:window-height="1016"
   inkscape:window-x="48"
   inkscape:window-y="27"
   inkscape:window-maximized="1"
   inkscape:current-layer="svg24">
  <sodipodi:guide
    position="0,32"
    orientation="0,32"
    id="guide867" />
  <sodipodi:guide
    position="32,32"
    orientation="32,0"
    id="guide869" />
  <sodipodi:guide
    position="32,0"
    orientation="0,-32"
    id="guide871" />
  <sodipodi:guide
    position="0,0"
    orientation="-32,0"
    id="guide873" />
 </sodipodi:namedview>
 <rect
   style="fill:#44aa00;stroke-width:1.024;stroke-linejoin:round;stroke-miterlimit:3"
   id="rect921"
   width="32"
   height="32"
   x="0"
   y="0"
   rx="4" />
 <g
   transform="matrix(3.08595,0,0,3.08595,-59.254125,-668.83041)"
   id="g22"
   style="stroke-width:0.324049">
  <path
    d="m 15.266,233.91 8.0727,3.7897 c 0.9235,-0.47539 1.5789,-0.61817 2.2371,0.0381 l -2e-4,-0.52269 c -0.70325,-0.58126 -1.0976,-0.57093 -2.2464,-0.0631 l -7.0251,-3.229 z"
    fill="#464646"
    id="path2"
    style="stroke-width:0.125676" />
  <path
    d="m 13.235,232.81 5.5398,5.2612 c 0.87886,-0.43997 1.596,-0.46802 2.2299,0.14621 l 0.005,-0.54543 c -0.8842,-0.5619 -1.0593,-0.56356 -2.2243,-0.21089 l -5.096,-4.8839 z"
    fill="#464646"
    id="path4"
    style="stroke-width:0.125676" />
  <path
    d="m 0.63236,232.39 -0.13746,0.95235 c 10.406,-2.0245 9.749,-2.1316 14.771,0.56278 1.2372,-3.1582 0.47952,-5.427 -1.6798,-7.0707 -6.0457,4.8435 -4.0881,3.4258 -12.954,5.5556 z"
    fill="#202658"
    id="path6"
    style="stroke-width:0.125676" />
  <path
    d="m 16.179,226.77 c -0.69386,-0.27296 -2.5927,0.0675 -2.5927,0.0675 l -4.8969,3.9531 c 0,0 2.3577,-0.14113 3.4514,-0.2068 1.504,-0.0903 3.5361,-0.34683 5.131,-0.68476 1.5954,-0.33805 3.6311,-0.75825 4.4004,-1.3933 0.27675,-0.22847 -1.014,-0.69129 -1.8324,-0.57739 -0.71032,0.0989 -2.0768,0.69118 -2.0768,0.69118 0,0 -0.76181,-1.5261 -1.5839,-1.8495 z"
    fill="#144a6f"
    id="path8"
    style="stroke-width:0.125676" />
  <path
    d="m 13.586,226.84 c 8.5492,-7.4894 6.4884,-7.1683 8.3196,-8.2837 -0.6639,2.7448 -0.76286,4.3799 2.0837,6.1265 -0.95049,1.1482 -1.7244,2.3385 -2.2618,3.7351 -1.5516,-0.76872 -2.3123,-0.4245 -3.9691,0.21336 -1.036,-1.9252 -1.8333,-2.1387 -4.1724,-1.7913 z"
    fill="#3b5800"
    id="path10"
    style="stroke-width:0.125676" />
  <path
    d="m 27.593,225.56 c -0.46285,-2.057 -2.7543,-1.7613 -3.6259,-0.85517 -0.77146,0.8462 -1.8124,2.045 -2.2398,3.7131 -1.4142,0.99769 -3.7198,1.1972 -5.4729,1.4835 -3.0953,0.50543 -2.3019,3.4534 -0.93901,4.043 2.2809,0.79468 5.1706,0.84983 6.7123,0.41803 3.9542,-1.5634 5.8942,-4.449 5.5654,-8.8025 z"
    fill="#e5be00"
    id="path12"
    style="stroke-width:0.125676" />
  <path
    d="m 22.408,218.27 c 3.9549,-1.1093 4.2354,1.1695 5.2186,1.4084 0.66549,0.16165 1.9486,0.40999 1.9486,0.40999 0,0 -1.8765,0.54753 -1.9443,1.2226 -0.10832,1.0784 -0.4589,1.7152 -0.24022,3.212 0.0264,0.18038 0.18737,0.68164 0.20251,1.0324 -2.4016,-2.5419 -2.3208,-0.4974 -4.472,-0.88965 -3.685,-0.47573 -3.2933,-5.326 -0.71322,-6.3958 z"
    id="path14"
    style="stroke-width:0.324049" />
  <ellipse
    cx="25.462999"
    cy="220.33"
    rx="0.64848"
    ry="0.37068"
    fill="#505050"
    id="ellipse16"
    style="stroke-width:0.125676" />
  <path
    d="m 29.575,220.09 -2.9867,0.26111 c 0,0 0.45787,0.89523 0.6674,0.74332 0.51697,-0.37481 2.3193,-1.0044 2.3193,-1.0044 z"
    fill="#505050"
    id="path18"
    style="stroke-width:0.125676" />
  <path
    d="m 27.18,220.73 c 0,0 -0.56551,0.0636 -2.4912,0.0248 -1.92569,-0.0388 -3.0275,0.29442 -2.6398,1.0699 0.38773,0.77545 2.5259,2.3193 3.36,1.5918 1.7189,-1.4992 1.771,-2.6865 1.771,-2.6865 z"
    fill="#ffffff"
    id="path20"
    style="stroke-width:0.125676" />
 </g>
</svg>
